<?xml version="1.0" encoding="UTF-8" standalone="no"?>
<!-- Generator: Adobe Illustrator 24.1.2, SVG Export Plug-In . SVG Version: 6.00 Build 0)  -->

<svg
   version="1.1"
   id="Layer_1"
   x="0px"
   y="0px"
   viewBox="0 0 792 612"
   style="enable-background:new 0 0 792 612;"
   xml:space="preserve"
   sodipodi:docname="logo.svg"
   inkscape:version="1.2.1 (9c6d41e410, 2022-07-14)"
   xmlns:inkscape="http://www.inkscape.org/namespaces/inkscape"
   xmlns:sodipodi="http://sodipodi.sourceforge.net/DTD/sodipodi-0.dtd"
   xmlns="http://www.w3.org/2000/svg"
   xmlns:svg="http://www.w3.org/2000/svg"><defs
   id="defs72" /><sodipodi:namedview
   id="namedview70"
   pagecolor="#ffffff"
   bordercolor="#000000"
   borderopacity="0.25"
   inkscape:showpageshadow="2"
   inkscape:pageopacity="0.0"
   inkscape:pagecheckerboard="0"
   inkscape:deskcolor="#d1d1d1"
   showgrid="false"
   inkscape:zoom="0.97631574"
   inkscape:cx="246.84637"
   inkscape:cy="370.78169"
   inkscape:window-width="1920"
   inkscape:window-height="1011"
   inkscape:window-x="0"
   inkscape:window-y="32"
   inkscape:window-maximized="1"
   inkscape:current-layer="Layer_1" />
<style
   type="text/css"
   id="style61">
	.st0{fill:none;stroke:#ED1C24;stroke-miterlimit:10;}
</style>
<path
   d="M385.8,325.5c0,0-3,0-6.7,0c-3.7,0-6.7,0-6.7,0s3,0,6.7,0C382.8,325.5,385.8,325.5,385.8,325.5z"
   id="path63" />
<path
   d="M 10.224836,401.49692 C 24.049209,378.54577 45.389748,358.54741 72.098977,343.51508 106.05594,323.51671 147.93171,311.7056 193.16291,311.7056 c 40.13095,0 77.44334,9.26098 109.11861,25.23283 36.77552,17.71668 65.22957,44.15747 80.12768,75.29587 6.44243,12.07955 11.14003,24.83019 13.95859,38.11769 7.11352,-33.82274 26.84345,-64.29005 55.16328,-87.91228 0.40266,-0.53687 0.67109,-0.93952 1.07374,-1.47639 0.13422,-0.26844 0.26844,-0.40265 0.40265,-0.67109 10.33473,-8.32147 22.01163,-15.70341 34.76227,-22.01162 32.21213,-16.91137 70.59826,-26.70923 111.93716,-26.70923 44.02325,0 84.69107,11.14003 118.11116,30.06466 29.12514,15.83763 52.2105,37.31239 66.43753,62.41101 1.20796,1.87904 2.28169,3.8923 3.48965,5.77134 2.95278,-12.07955 4.42917,-24.83019 4.42917,-37.84926 0,-35.43335 -11.40847,-68.04813 -30.3331,-93.68362 -5.63712,-8.58991 -11.54268,-16.77716 -17.9851,-24.69597 -12.48221,-15.30077 -26.17236,-28.99093 -40.93626,-40.93626 -11.00581,-8.99255 -22.54849,-17.1798 -34.22539,-24.69597 -11.40847,-7.24773 -23.21958,-13.55594 -35.0307,-19.72993 -6.17399,-3.22121 -12.61642,-5.63712 -19.05884,-8.32147 -7.51617,-3.08699 -15.03233,-6.44243 -22.68272,-8.99255 0,0 0,0 0,0 0,0 0,0 0,0 -9.3952,-3.087 -18.79041,-5.90556 -28.18561,-8.32147 -7.65039,-2.01326 -15.43498,-4.02652 -23.3538,-5.23447 -8.18725,-1.20796 -16.50872,-1.61061 -24.83019,-2.2817 -3.08699,-0.26843 -6.03977,-0.26843 -9.12677,-0.26843 -2.14748,0 -4.16073,0.53687 -6.30821,0.8053 0,0.53687 -0.13422,1.07374 -0.13422,1.61061 2.81857,1.74482 5.77134,3.48965 8.58991,5.10025 8.45568,4.83182 15.43498,11.6769 20.66945,20.93789 3.62386,6.30821 5.63712,13.15329 5.63712,20.80367 -0.13421,11.54268 -7.65038,27.51453 -14.76389,34.89648 -9.12677,9.39521 -41.33891,42.14421 -87.10698,42.27843 -2.41591,0 -4.83182,-0.26844 -6.9793,-0.93952 -0.26843,-0.13422 -0.53687,-0.13422 -0.8053,-0.26844 -0.40265,-0.13421 -0.80531,-0.26843 -1.20796,-0.40265 -0.40265,-0.13422 -0.93952,-0.40265 -1.34217,-0.53687 -0.26843,-0.13422 -0.40265,-0.13422 -0.67109,-0.26843 -0.53686,-0.26844 -1.07373,-0.53687 -1.74482,-0.80531 0,0 -0.13422,0 -0.13422,-0.13421 -1.20795,-0.67109 -2.41591,-1.47639 -3.62386,-2.2817 0,0 0,0 0,0 -0.8053,-0.53686 -1.47639,-1.20795 -2.28169,-1.87904 0,0 -0.13422,-0.13421 -0.13422,-0.13421 -0.26844,-0.26844 -0.53687,-0.53687 -0.80531,-0.80531 -0.13421,-0.13421 -0.26843,-0.26843 -0.40265,-0.40265 -0.13421,-0.13422 -0.26843,-0.26843 -0.40265,-0.40265 -4.29495,-4.83182 -6.84508,-11.14003 -6.84508,-18.11933 0,-3.75808 0.80531,-7.38194 2.14748,-10.60316 0,0 0,0 0,0 0.13422,-0.13421 0.13422,-0.40265 0.26843,-0.53687 4.29495,-9.52942 13.82438,-16.10606 24.96441,-16.24028 1.74482,0 3.48965,0.13422 5.10025,0.53687 v 0 c 0,0 0,0 0,0 l -41.74156,-71.53778 v 0 0 l -41.3389,71.672 c 0,0 0,0 0,0 v 0 c 1.61061,-0.26844 3.35543,-0.53687 5.10025,-0.53687 11.14003,0 20.66946,6.71086 24.96441,16.24028 0.13421,0.13422 0.13421,0.40265 0.26843,0.53687 0,0 0,0 0,0 1.34217,3.22121 2.14748,6.84508 2.14748,10.60316 0,6.9793 -2.55013,13.28751 -6.84508,18.11933 -0.13422,0.13421 -0.26844,0.26843 -0.40265,0.40265 -0.13422,0.13422 -0.26844,0.26843 -0.40265,0.40265 -0.26844,0.26843 -0.53687,0.53687 -0.80531,0.8053 0,0 -0.13422,0.13422 -0.13422,0.13422 -0.67108,0.67109 -1.47638,1.34217 -2.28169,1.87904 0,0 0,0 0,0 -1.07374,0.8053 -2.28169,1.61061 -3.62386,2.28169 0,0 -0.13422,0 -0.13422,0.13422 -0.53687,0.26844 -1.07374,0.53687 -1.74482,0.8053 -0.26844,0.13422 -0.40266,0.13422 -0.67109,0.26844 -0.40265,0.13422 -0.93952,0.40265 -1.34217,0.53687 -0.40265,0.13422 -0.80531,0.26843 -1.20796,0.40265 -0.26843,0.13422 -0.53687,0.13422 -0.8053,0.26843 -2.28169,0.53687 -4.56339,0.93953 -6.9793,0.93953 -45.76807,-0.13422 -78.11442,-32.88323 -87.10698,-42.27843 -7.11351,-7.38195 -14.62967,-23.3538 -14.76389,-34.89648 -0.13422,-7.65038 2.01326,-14.49546 5.63712,-20.80367 5.23447,-9.26099 12.21377,-16.10607 20.66945,-20.93789 2.95278,-1.6106 5.77135,-3.48965 8.58991,-5.10025 0,-0.53687 -0.13422,-1.07374 -0.13422,-1.61061 -2.14748,-0.26843 -4.16073,-0.8053 -6.30821,-0.8053 -3.087,-0.13422 -6.03978,0 -9.12677,0.26843 -8.32147,0.67109 -16.64294,0.93952 -24.83019,2.28169 -7.7846,1.20796 -15.5692,3.22122 -23.3538,5.23448 -9.52942,2.55012 -18.92463,5.23447 -28.18561,8.32146 0,0 0,0 0,0 0,0 0,0 0,0 -7.65039,2.55013 -15.16655,5.90556 -22.68272,8.99256 -6.44242,2.68434 -12.88485,4.96604 -19.05884,8.32147 -11.81112,6.30821 -23.62223,12.4822 -35.03069,19.72993 -11.6769,7.51616 -23.21959,15.70341 -34.225398,24.69597 C 75.454407,224.86705 61.76425,238.42299 49.282048,253.72375 42.839621,261.64257 36.934063,269.82982 31.29694,278.41972 12.103877,304.05521 0.69541243,336.67 0.69541243,372.10335 c 0,13.01907 1.61060667,25.63549 4.42916847,37.71504 1.6106067,-2.81856 3.3554307,-5.50291 5.1002551,-8.32147 z"
   id="path65"
   style="stroke-width:1.34217" />

</svg>
